<?xml version="1.0" encoding="UTF-8"?>
<svg version="1.1" xmlns="http://www.w3.org/2000/svg" width="256" height="256">
<path d="M0 0 C1.1353591 -0.00679667 1.1353591 -0.00679667 2.29365474 -0.01373065 C4.81984078 -0.02635042 7.34581054 -0.02475584 9.87202454 -0.02310181 C11.68755367 -0.02908868 13.50308026 -0.03589459 15.31860352 -0.04345703 C20.24446318 -0.06111074 25.17025333 -0.06581223 30.09614158 -0.0670886 C33.1767707 -0.06851143 36.25738223 -0.07278358 39.33800697 -0.07808304 C50.09447473 -0.09658315 60.85089296 -0.10475391 71.6073761 -0.10317993 C81.61846076 -0.10197942 91.62932952 -0.12306419 101.64035958 -0.15466726 C110.24696096 -0.18086409 118.85349198 -0.19154576 127.4601329 -0.19026911 C132.59521025 -0.18976037 137.7300958 -0.19539494 142.86513329 -0.21662521 C147.69891596 -0.23606431 152.53232504 -0.23609338 157.36612129 -0.22159195 C159.133712 -0.21950959 160.90132643 -0.22417038 162.66887665 -0.23631287 C177.659422 -0.33256837 188.74175268 2.11898752 200.29121399 12.26742554 C208.39251855 20.87975858 213.6115559 31.03816096 213.55863953 42.97621155 C213.56317064 43.73311761 213.56770175 44.49002368 213.57237017 45.26986629 C213.58498995 47.79605232 213.58339537 50.32202209 213.58174133 52.84823608 C213.58772821 54.66376522 213.59453412 56.47929181 213.60209656 58.29481506 C213.61975026 63.22067473 213.62445175 68.14646488 213.62572813 73.07235312 C213.62715095 76.15298225 213.6314231 79.23359377 213.63672256 82.31421852 C213.65522267 93.07068628 213.66339344 103.8271045 213.66181946 114.58358765 C213.66061894 124.59467231 213.68170372 134.60554107 213.71330678 144.61657113 C213.73950361 153.2231725 213.75018528 161.82970353 213.74890864 170.43634444 C213.74839989 175.5714218 213.75403447 180.70630735 213.77526474 185.84134483 C213.79470383 190.67512751 213.79473291 195.50853658 213.78023148 200.34233284 C213.77814911 202.10992354 213.7828099 203.87753797 213.79495239 205.6450882 C213.8912079 220.63563354 211.439652 231.71796422 201.29121399 243.26742554 C192.67888094 251.3687301 182.52047857 256.58776745 170.58242798 256.53485107 C169.44706888 256.54164774 169.44706888 256.54164774 168.28877324 256.54858172 C165.7625872 256.5612015 163.23661743 256.55960692 160.71040344 256.55795288 C158.89487431 256.56393975 157.07934772 256.57074567 155.26382446 256.57830811 C150.3379648 256.59596181 145.41217464 256.6006633 140.4862864 256.60193968 C137.40565728 256.6033625 134.32504575 256.60763465 131.24442101 256.61293411 C120.48795325 256.63143422 109.73153502 256.63960499 98.97505188 256.63803101 C88.96396721 256.63683049 78.95309845 256.65791527 68.9420684 256.68951833 C60.33546702 256.71571516 51.728936 256.72639683 43.12229508 256.72512019 C37.98721773 256.72461144 32.85233218 256.73024601 27.71729469 256.75147629 C22.88351202 256.77091538 18.05010294 256.77094446 13.21630669 256.75644302 C11.44871598 256.75436066 9.68110155 256.75902145 7.91355133 256.77116394 C-7.07699402 256.86741945 -18.1593247 254.41586355 -29.70878601 244.26742554 C-37.81009057 235.65509249 -43.02912792 225.49669012 -42.97621155 213.55863953 C-42.98074266 212.80173346 -42.98527377 212.0448274 -42.98994219 211.26498479 C-43.00256197 208.73879875 -43.00096739 206.21282898 -42.99931335 203.68661499 C-43.00530023 201.87108586 -43.01210614 200.05555927 -43.01966858 198.24003601 C-43.03732228 193.31417635 -43.04202377 188.38838619 -43.04330015 183.46249795 C-43.04472297 180.38186883 -43.04899512 177.3012573 -43.05429459 174.22063255 C-43.07279469 163.46416479 -43.08096546 152.70774657 -43.07939148 141.95126343 C-43.07819096 131.94017876 -43.09927574 121.92931 -43.13087881 111.91827995 C-43.15707564 103.31167857 -43.1677573 94.70514755 -43.16648066 86.09850663 C-43.16597191 80.96342928 -43.17160649 75.82854372 -43.19283676 70.69350624 C-43.21227586 65.85972357 -43.21230493 61.02631449 -43.1978035 56.19251823 C-43.19572114 54.42492753 -43.20038192 52.6573131 -43.21252441 50.88976288 C-43.30877992 35.89921753 -40.85722402 24.81688685 -30.70878601 13.26742554 C-22.09645296 5.16612098 -11.93805059 -0.05291638 0 0 Z " fill="#080808" transform="translate(42.70878601074219,-0.267425537109375)"/>
<path d="M0 0 C7.12010991 5.03405721 10.93335201 11.25281823 15.0625 18.8125 C16.04212217 20.55812493 17.02176842 22.30373689 18.00288391 24.04852295 C19.01203839 25.84737655 20.01471303 27.64972803 21.01660156 29.45263672 C24.08862529 34.96595285 27.27013605 40.41612 30.4375 45.875 C35.99005298 55.48823432 41.50551544 65.12239285 47.00695801 74.7649231 C51.87452112 83.29586065 56.77144275 91.80939334 61.6875 100.3125 C64.12749319 104.54023328 66.56455789 108.76964358 69 113 C69.62165039 114.07878418 70.24330078 115.15756836 70.88378906 116.26904297 C72.69947128 119.42590785 74.50717626 122.58720243 76.3125 125.75 C76.85801514 126.69657471 77.40353027 127.64314941 77.96557617 128.6184082 C83.83816283 138.94839829 86.07002423 148.43854057 83.1953125 160.328125 C80.10737064 168.63362378 75.18269869 175.0347956 67.43268871 179.46884918 C59.11110891 183.19836496 51.66073859 183.70479994 42.64379883 183.61523438 C41.13940303 183.61874387 39.63501099 183.62441173 38.13063049 183.63204956 C34.08102778 183.64618484 30.03211328 183.62935025 25.98257661 183.60576439 C21.72672546 183.58551868 17.4708991 183.59154184 13.2150116 183.59387207 C6.07429786 183.59381866 -1.06614982 183.57415671 -8.20678711 183.54199219 C-16.44462622 183.50506417 -24.68211777 183.49632424 -32.92002887 183.5032897 C-40.87251263 183.50960834 -48.82487815 183.49881798 -56.77733803 183.47932434 C-60.14992276 183.47118208 -63.52244679 183.46843489 -66.89504051 183.47001648 C-70.86874118 183.47089951 -74.84211483 183.45656759 -78.81572914 183.43078995 C-80.26808206 183.42366789 -81.72046986 183.42152529 -83.1728363 183.42490768 C-94.09002766 183.44547234 -103.68345351 182.67681215 -112 175 C-120.03522403 166.34668181 -122.42996947 157.55351133 -122.53125 145.90625 C-121.17966358 135.96811458 -115.66397698 127.52807531 -110.6875 119 C-109.9733369 117.76468197 -109.25980735 116.52899748 -108.546875 115.29296875 C-107.08350825 112.75831589 -105.61647847 110.22584377 -104.14599609 107.6953125 C-101.53085423 103.19470626 -98.93117655 98.6852184 -96.33129883 94.17578125 C-95.10413797 92.0476772 -93.87610158 89.92007778 -92.6472168 87.79296875 C-88.07406014 79.87565763 -83.53156905 71.94114629 -79 64 C-72.50186735 52.61493826 -65.98584748 41.24060395 -59.40625 29.90234375 C-57.28673893 26.2467759 -55.20059951 22.57698849 -53.15625 18.87890625 C-47.17407057 8.150451 -41.34581876 -0.53082391 -29.015625 -4.37109375 C-18.67254114 -6.52813585 -9.09472937 -5.54705344 0 0 Z " fill="#FDFDFD" transform="translate(147,39)"/>
<path d="M0 0 C28.87557043 18.49914594 47.18652953 51.29783504 54.7265625 84.08203125 C55.54015526 88.24405201 56.10028982 92.31030755 56.40234375 96.5390625 C54.1735023 97.49815801 51.94428407 98.45636087 49.71484375 99.4140625 C49.08900391 99.68347656 48.46316406 99.95289063 47.81835938 100.23046875 C46.01502144 101.00467666 44.20873012 101.77199414 42.40234375 102.5390625 C41.20750366 103.04759766 41.20750366 103.04759766 39.98852539 103.56640625 C10.33603628 114.71863098 -29.51115483 109.55079139 -58.078125 97.23828125 C-58.57957031 97.00753906 -59.08101563 96.77679688 -59.59765625 96.5390625 C-54.57364858 61.04048202 -37.21547036 27.17963105 -9.28515625 4.2265625 C-8.69839111 3.72761475 -8.11162598 3.22866699 -7.50708008 2.71459961 C-3.32486618 -0.58997625 -3.32486618 -0.58997625 0 0 Z " fill="#1D1D1D" transform="translate(129.59765625,83.4609375)"/>
</svg>
